<?xml version="1.0" encoding="utf-8" ?>
<svg xmlns="http://www.w3.org/2000/svg" xmlns:xlink="http://www.w3.org/1999/xlink" width="1421" height="1421"
  viewBox="478 334 505 674">
  <path fill="#42BB50" transform="matrix(1.3877 0 0 1.3877 0 3.05176e-05)"
    d="M708.405 241.081L708.371 241.662C705.849 245.653 694.594 257.885 691.017 261.82C684.04 269.59 677.133 277.424 670.297 285.32L620.182 341.502C606.831 356.643 589.649 377.871 574.475 391.458C571.407 394.205 554.836 400.814 550.067 402.886L513.52 418.809C508.291 421.042 499.206 424.36 494.756 427.432C499.001 429.662 505.451 431.831 510.081 433.524L535.138 442.685C560.659 452.015 586.12 461.511 611.517 471.174C622.815 475.449 639.545 481.251 650.295 486.14L625.831 543.518C622.662 550.94 615.259 570.954 610.754 576.356C605.003 583.253 550.819 610.674 539.752 616.781C498.919 639.796 457.912 662.5 416.735 684.893C395.102 696.906 374.422 709.162 353.128 721.539L344.988 726.337C363.837 692.832 381.607 658.028 399.92 624.186C408.762 607.847 417.123 590.662 425.895 574.259C426.678 572.795 428.623 569.266 430.007 568.557C442.648 562.082 456.553 556.992 469.712 551.51C489.381 543.315 509.115 534.066 528.923 526.461C526.1 524.964 522.121 523.418 519.057 522.413C479.236 509.349 441.069 491.818 401.928 476.898C396.228 474.725 389.324 472.117 383.959 469.335C385.532 462.966 389.351 452.458 391.565 446.126L407.516 401.764C409.854 395.175 415.286 376.909 418.095 372.106C422.551 369.159 437.165 363.115 442.795 360.602L490.122 339.273L708.405 241.081ZM428.414 378.522C425.916 383.94 424.131 389.491 422.094 395.087C413.785 417.923 406.249 440.961 397.606 463.678C405.334 466.322 416.221 471.135 424.267 474.301L496.788 503.119C516.825 510.883 539.385 517.02 559.777 525.366C552.045 529.247 542.341 532.769 534.167 535.932L505.932 547.096C497.304 550.499 446.763 572.332 439.236 575.536C437.297 576.362 418.941 613.123 415.679 619.34L375.742 695.133L381.665 692.014L527.153 611.634C543.58 602.599 559.955 593.47 576.278 584.248C583.168 580.392 595.274 574.114 601.452 569.909C607.341 558.118 613.468 541.985 618.717 529.498C623.924 517.112 630.49 502.621 635.083 490.257C622.659 485.277 608.729 480.668 596.035 475.983L512.925 444.98L483.578 433.789C478.833 431.962 472.462 429.784 468.029 427.592C487.782 419.748 506.866 410.4 526.322 401.87C538.885 396.363 557.07 390.076 568.235 382.778C570.459 381.324 572.399 379.331 574.193 377.388C580.527 370.528 664.28 275.419 664.502 274.705C664.679 274.136 664.64 274.082 664.615 273.57L663.431 272.464C646.553 279.47 629.123 287.902 612.383 295.462L517.134 338.136L458.217 364.879C452.449 367.473 432.785 375.75 428.414 378.522Z" />
</svg>